# xmcd
# 
# Track frame offsets:
#     150
#     24300
#     44250
#     62537
#     78675
#     97687
#     115437
#     132925
#     151400
#     171437
#     189450
#     209375
# 
# Disc length: 3071
# 
# Revision: 1
# Processed by: cddbd v1.5.2PL0 Copyright (c) Steve Scherf et al.
# Submitted via: fre:ac v1.0.27
# 
DISCID=9c0bfd0c
DTITLE=Various Artist - [1994] 无情人有情天
DYEAR=1994
DGENRE=POP
TTITLE0=陳亞蘭;施文彬 - 無情人有情天 (feat.施文彬)
TTITLE1=陳亞蘭 - 情雨亂亂飛
TTITLE2=陳亞蘭 - 感情誰人贏
TTITLE3=陳亞蘭 - 伴阮講心情
TTITLE4=陳亞蘭 - 愛的癡迷
TTITLE5=陳亞蘭 - 新竹風基隆雨
TTITLE6=陳亞蘭 - 約會
TTITLE7=陳亞蘭 - 拖擱再拖
TTITLE8=陳亞蘭 - 愛情哪這簡單
TTITLE9=陳亞蘭 - 情砂
TTITLE10=陳亞蘭 - 愛的城市
TTITLE11=陳亞蘭 - 無眠無人問
EXTD=
EXTT0=
EXTT1=
EXTT2=
EXTT3=
EXTT4=
EXTT5=
EXTT6=
EXTT7=
EXTT8=
EXTT9=
EXTT10=
EXTT11=
PLAYORDER=
